# Blender v3.0.0 OBJ File: 'City.blend'
# www.blender.org
mtllib Building8.mtl
o Building8_Cube.008
v -3.776790 -0.035724 5.226753
v -3.776790 5.137310 5.226753
v -3.776790 -0.035724 -5.226753
v -3.776790 5.137310 -5.226753
v 3.776790 -0.035724 5.226753
v 3.776790 5.137310 5.226753
v 3.776790 -0.035724 -5.226753
v 3.776790 5.137310 -5.226753
v -1.823609 6.819137 -5.226753
v -1.823609 2.550792 -5.226753
v -1.823609 6.819137 5.226753
v -1.823609 -0.035724 -5.226753
v 0.000000 2.550792 -5.226753
v 3.776790 2.550792 -5.226753
v -3.776790 2.550792 -5.226753
v 0.000000 7.996434 5.226753
v 0.000000 7.996434 -5.226753
v 0.000000 -0.035724 -5.226753
v 1.888395 6.768172 -5.226753
v 1.888395 2.550792 -5.226753
v 1.888395 6.768172 5.226753
v 1.888395 -0.035724 -5.226753
v -3.776790 -0.035724 -0.034795
v -3.776790 5.137310 -0.034795
v 3.776790 -0.035724 -0.034795
v 3.776790 5.137310 -0.034795
v -3.776790 2.550792 -0.034795
v 3.776790 2.550792 -0.034795
v 1.888395 6.768172 -0.034795
v -1.823609 6.819137 -0.034795
v 0.000000 7.996434 -0.034795
v -3.776790 4.798322 5.226753
v -1.823609 6.259730 5.226753
v -1.823609 6.259730 -5.226753
v 0.000000 7.500043 5.226753
v 0.000000 7.500043 -5.226753
v 3.776790 4.798322 5.226753
v 3.776790 4.798322 -5.226753
v -3.776790 4.798322 -5.226753
v 1.888395 6.215445 5.226753
v 1.888395 6.215445 -5.226753
v 3.776790 4.798322 -0.034795
v -3.776790 4.798322 -0.034795
v -5.422679 3.131819 5.389665
v -5.518422 3.496076 5.485029
v -5.518422 3.496076 -0.035939
v -5.518422 3.496076 -5.483885
v 5.518422 3.496076 -0.035939
v 5.518422 3.496076 5.485029
v 5.518422 3.496076 -5.483885
v 5.422679 3.131819 5.389665
v 5.422679 3.131819 -5.388943
v -5.422679 3.131819 -5.388943
v 5.422679 3.131819 -0.035516
v -5.422679 3.131819 -0.035516
v -2.312837 5.554457 5.275810
v -1.823609 5.665043 -5.226753
v 0.000000 6.993058 5.226753
v 0.000000 6.993058 -5.226753
v 3.776790 4.437955 5.226753
v 3.776790 4.437955 -5.226753
v -3.776790 4.437955 -5.226753
v 2.323509 5.554457 5.275810
v 1.888395 5.627858 -5.226753
v 3.776790 4.437955 -0.034795
v -3.776790 4.437955 -0.034795
v -3.776790 4.437955 5.226753
v -1.823609 5.007880 -5.226753
v 0.000000 6.055661 -5.226753
v 3.776790 4.039731 -5.226753
v -3.776790 4.039731 -5.226753
v 1.888395 4.978543 -5.226753
v 3.776790 4.039731 -0.034795
v -3.776790 4.039731 -0.034795
v -3.776790 2.550793 5.226753
v -3.776790 4.039731 5.226753
v 3.776790 4.039731 5.226753
v 3.776790 2.550792 5.226753
v 1.164422 5.554457 5.275810
v -1.113985 5.554457 5.275810
v 0.005336 5.554457 5.275810
v -2.312837 3.284796 5.242476
v 2.323509 3.284796 5.242476
v 2.323509 2.075935 5.242476
v 2.323509 -0.024045 5.242476
v -2.312837 2.075935 5.242476
v -2.312837 -0.024045 5.242476
v 2.361136 1.601078 9.166947
v 2.361136 -0.012366 9.166947
v 1.183174 -0.012366 9.166947
v 2.016763 2.316484 8.980600
v 2.016763 2.316484 9.166947
v -1.132338 1.601078 9.166947
v -1.132338 -0.012366 9.166947
v -2.350713 -0.012366 9.166947
v 0.005212 1.601078 9.166947
v -2.350713 1.601078 9.166947
v 1.183174 1.601078 9.166947
v 0.005212 3.787380 9.166947
v 2.361136 2.529863 9.166947
v 1.021079 2.811487 9.166947
v 1.021079 2.811487 8.980600
v -2.350713 2.529863 9.166947
v -2.350713 3.975843 9.085486
v -1.132338 3.975843 9.085486
v 2.361136 3.975843 9.085486
v 1.183174 3.975843 9.085486
v 0.005212 3.975843 9.085486
v 2.404714 2.130526 10.198242
v 0.005062 3.236035 10.198242
v 1.183174 3.115484 9.166947
v 1.204888 2.645358 10.198242
v -1.132338 3.133785 9.166947
v -2.394591 2.130526 10.198242
v -2.394591 3.561007 10.029669
v -1.153601 3.561007 10.029669
v 2.404714 3.561007 10.029669
v 1.204888 3.561007 10.029669
v 0.005062 3.561007 10.029669
v -1.153601 2.661446 10.198242
v -0.332157 1.938446 9.166947
v -1.132338 1.938446 9.166947
v -2.013345 1.938446 9.166947
v -0.332157 3.204450 9.166947
v -2.013345 2.320549 9.166947
v -0.973237 2.836108 9.166947
v 1.183174 1.945451 9.166947
v 0.349585 1.945451 9.166947
v 0.349585 3.194499 9.166947
v 2.016763 1.945451 9.166947
v -0.973237 2.836108 8.980600
v -1.132338 1.938446 8.980600
v 1.183174 1.945451 8.980600
v -0.332157 1.938446 8.980600
v -2.013345 1.938446 8.980600
v -0.332157 3.204450 8.980600
v -2.013345 2.320549 8.980600
v 0.349585 1.945451 8.980600
v 0.349585 3.194499 8.980600
v 2.016763 1.945451 8.980600
v -0.417641 1.103283 9.199644
v -0.417641 -0.031341 9.199644
v 0.010545 1.103283 9.199644
v 0.462571 1.103283 9.199644
v 0.462571 -0.031341 9.199644
v 0.010545 1.103283 8.966450
v 0.010545 -0.031341 8.966450
v 0.462571 -0.031341 8.966450
v -0.417641 1.103283 8.966450
v -0.417641 -0.031341 8.966450
v 0.462571 1.103283 8.966450
v 0.005212 3.787380 9.166947
v 2.361136 2.529863 9.166947
v -2.350713 2.529863 9.166947
v 2.404714 2.130526 10.198242
v 0.005062 3.236035 10.198242
v 1.183174 3.115484 9.166947
v 1.204888 2.645358 10.198242
v -1.132338 3.133785 9.166947
v -2.394591 2.130526 10.198242
v -1.153601 2.661446 10.198242
vt 0.486370 0.864341
vt 0.486370 0.985386
vt 0.410797 0.989168
vt 0.410797 0.864357
vt 0.174139 0.651402
vt 0.174139 0.675630
vt 0.091362 0.604142
vt 0.091362 0.589283
vt 0.015018 0.532199
vt 0.019215 0.516232
vt 0.683641 0.598220
vt 0.683641 0.621703
vt 0.601649 0.551103
vt 0.601649 0.536872
vt 0.256916 0.377384
vt 0.256916 0.490763
vt 0.174139 0.490763
vt 0.174139 0.377384
vt 0.918738 0.536872
vt 0.918738 0.551103
vt 0.839465 0.619564
vt 0.839465 0.596361
vt 0.760193 0.650287
vt 0.760193 0.671125
vt 0.422470 0.377384
vt 0.422470 0.490763
vt 0.336853 0.490763
vt 0.336853 0.377384
vt 0.422470 0.589283
vt 0.422470 0.604142
vt 0.336853 0.677864
vt 0.336853 0.653343
vt 0.043234 0.181902
vt 0.192911 0.181902
vt 0.192911 0.330582
vt 0.043234 0.330582
vt 0.091362 0.490763
vt 0.091362 0.377384
vt 0.043234 0.179909
vt 0.192911 0.179909
vt 0.192911 0.330582
vt 0.043234 0.330582
vt 0.256916 0.729471
vt 0.256916 0.707712
vt 0.304095 0.863522
vt 0.379930 0.863522
vt 0.379930 0.977547
vt 0.304095 0.977547
vt 0.091318 0.863522
vt 0.169656 0.863522
vt 0.169656 0.977547
vt 0.091318 0.977547
vt 0.235628 0.863522
vt 0.235628 0.977547
vt 0.169656 0.747970
vt 0.235628 0.747970
vt 0.304095 0.747970
vt 0.091318 0.747970
vt 0.379930 0.747970
vt 0.043234 0.031228
vt 0.192911 0.031228
vt 0.043234 0.031228
vt 0.192911 0.031228
vt 0.528537 0.482206
vt 0.532556 0.466915
vt 0.335225 0.985386
vt 0.335225 0.864341
vt 0.410797 0.864357
vt 0.410797 0.989168
vt 0.302118 0.031228
vt 0.322971 0.031228
vt 0.322971 0.181902
vt 0.302118 0.181902
vt 0.302117 0.031228
vt 0.322971 0.031228
vt 0.322971 0.179909
vt 0.302118 0.179909
vt 0.256916 0.685488
vt 0.174139 0.625645
vt 0.857731 0.568614
vt 0.760193 0.629004
vt 0.336853 0.627275
vt 0.422470 0.573486
vt 0.663104 0.568614
vt 0.918738 0.521745
vt 0.601649 0.521744
vt 0.322971 0.330582
vt 0.302118 0.330582
vt 0.091362 0.573486
vt 0.322971 0.330582
vt 0.302118 0.330582
vt 0.884103 0.876707
vt 0.872600 0.876707
vt 0.872600 0.789523
vt 0.884103 0.789523
vt 0.884103 0.877875
vt 0.872600 0.877875
vt 0.872600 0.789523
vt 0.884103 0.789523
vt 0.884103 0.965058
vt 0.872600 0.965058
vt 0.884103 0.965058
vt 0.872600 0.965058
vt 0.452664 0.742298
vt 0.452664 0.863548
vt 0.452664 0.983194
vt 0.494617 0.516232
vt 0.498815 0.532199
vt 0.018585 0.983194
vt 0.018585 0.863548
vt 0.018585 0.742298
vt 0.486370 0.741672
vt 0.410797 0.737874
vt 0.987830 0.466915
vt 0.991849 0.482206
vt 0.335225 0.741672
vt 0.410797 0.737874
vt 0.279073 0.181902
vt 0.279073 0.330582
vt 0.174139 0.597182
vt 0.091362 0.556030
vt 0.279073 0.179909
vt 0.279073 0.330582
vt 0.422470 0.556030
vt 0.336853 0.598468
vt 0.256916 0.644398
vt 0.279073 0.031228
vt 0.279073 0.031228
vt 0.601649 0.442524
vt 0.601649 0.333945
vt 0.663103 0.334436
vt 0.663104 0.422590
vt 0.918738 0.505028
vt 0.857731 0.473336
vt 0.601649 0.505028
vt 0.663104 0.473336
vt 0.760417 0.568614
vt 0.809074 0.568614
vt 0.918738 0.333945
vt 0.918738 0.442524
vt 0.857731 0.422590
vt 0.857731 0.334436
vt 0.713430 0.568614
vt 0.358754 0.130841
vt 0.358754 0.022204
vt 0.505469 0.022808
vt 0.505469 0.106276
vt 0.811669 0.906210
vt 0.811688 0.973305
vt 0.634093 0.975494
vt 0.634001 0.907286
vt 0.358755 0.193379
vt 0.360000 0.310794
vt 0.502425 0.229128
vt 0.505470 0.154324
vt 0.358754 0.193379
vt 0.505469 0.154324
vt 0.811670 0.778685
vt 0.811665 0.843560
vt 0.633999 0.843567
vt 0.634003 0.777584
vt 0.358755 0.022204
vt 0.358755 0.130841
vt 0.505470 0.106276
vt 0.505470 0.022808
vt 0.360000 0.310794
vt 0.502424 0.229128
vt 0.811689 0.713816
vt 0.634093 0.711640
vt 0.954053 0.022169
vt 0.954053 0.150644
vt 0.860255 0.150644
vt 0.860255 0.022169
vt 0.717928 0.471771
vt 0.717928 0.488706
vt 0.711263 0.488706
vt 0.711263 0.471771
vt 0.675876 0.022169
vt 0.675876 0.150644
vt 0.578861 0.150644
vt 0.578861 0.022169
vt 0.589277 0.843574
vt 0.589248 0.776338
vt 0.589438 0.709110
vt 0.729669 0.520583
vt 0.726129 0.509171
vt 0.734572 0.509173
vt 0.737707 0.520527
vt 0.732964 0.532522
vt 0.740674 0.532457
vt 0.591616 0.310290
vt 0.613499 0.306789
vt 0.614482 0.311981
vt 0.588186 0.315289
vt 0.586971 0.280656
vt 0.588531 0.291809
vt 0.583771 0.295534
vt 0.580395 0.277984
vt 0.621431 0.272701
vt 0.589680 0.277989
vt 0.583499 0.273574
vt 0.621894 0.265422
vt 0.627605 0.308014
vt 0.627331 0.314673
vt 0.538388 0.908738
vt 0.589245 0.908505
vt 0.589439 0.978040
vt 0.509070 0.978382
vt 0.509069 0.708766
vt 0.537498 0.776100
vt 0.569861 0.843573
vt 0.729770 0.497368
vt 0.737797 0.497427
vt 0.544088 0.133668
vt 0.537794 0.207671
vt 0.537793 0.207671
vt 0.544088 0.133668
vt 0.732964 0.485820
vt 0.740674 0.485889
vt 0.739593 0.177508
vt 0.675876 0.177508
vt 0.766457 0.150644
vt 0.605724 0.177508
vt 0.739593 0.278317
vt 0.766457 0.324734
vt 0.605724 0.207934
vt 0.578861 0.224601
vt 0.688545 0.248987
vt 0.675876 0.272690
vt 0.860255 0.178066
vt 0.793878 0.178066
vt 0.793878 0.277524
vt 0.926632 0.207610
vt 0.926632 0.178066
vt 0.954053 0.224601
vt 0.847348 0.247026
vt 0.860255 0.271233
vt 0.832746 0.466858
vt 0.779093 0.476900
vt 0.755365 0.518501
vt 0.832746 0.518501
vt 0.832814 0.518684
vt 0.754383 0.518684
vt 0.777202 0.478968
vt 0.832814 0.469111
vt 0.832746 0.415216
vt 0.809759 0.415216
vt 0.809142 0.414531
vt 0.832814 0.414531
vt 0.653338 0.288171
vt 0.658589 0.284830
vt 0.613753 0.271512
vt 0.612752 0.265416
vt 0.651712 0.298407
vt 0.657207 0.302112
vt 0.644273 0.274183
vt 0.647338 0.269663
vt 0.652456 0.304639
vt 0.658663 0.308021
vt 0.732786 0.020659
vt 0.732786 0.111006
vt 0.766881 0.111006
vt 0.802875 0.111006
vt 0.802875 0.020659
vt 0.751184 0.402021
vt 0.751184 0.465668
vt 0.727165 0.465668
vt 0.727165 0.402021
vt 0.776541 0.402021
vt 0.776541 0.465668
vt 0.717928 0.409018
vt 0.717928 0.453893
vt 0.711263 0.453893
vt 0.711263 0.409018
vt 0.717928 0.533581
vt 0.711263 0.533581
vn -0.7115 -0.7027 0.0000
vn -0.0000 0.0000 -1.0000
vn -0.2190 -0.1012 -0.9705
vn 0.0000 0.0000 1.0000
vn -1.0000 0.0000 0.0000
vn 1.0000 0.0000 0.0000
vn 0.6536 0.7568 0.0000
vn -0.6525 0.7578 0.0000
vn 0.5452 0.8383 0.0000
vn -0.5424 0.8401 0.0000
vn 0.2199 -0.1016 0.9702
vn 0.7115 -0.7027 0.0000
vn 0.0204 0.0495 0.9986
vn -0.0194 0.0482 0.9986
vn 0.0750 0.0797 0.9940
vn -0.0746 0.0800 0.9940
vn -0.9671 -0.2542 0.0000
vn 0.9671 -0.2542 0.0000
vn 0.6858 0.7278 0.0000
vn 0.2190 -0.1012 -0.9705
vn -0.6858 0.7278 0.0000
vn -0.2199 -0.1016 0.9702
vn -0.0107 0.0000 0.9999
vn 0.0207 -0.0125 0.9997
vn 0.0000 0.0341 0.9994
vn 0.0108 0.0000 0.9999
vn -0.0206 -0.0125 0.9997
vn -1.0000 0.0000 -0.0097
vn 0.0000 0.9238 0.3828
vn 1.0000 -0.0001 -0.0098
vn 1.0000 0.0000 -0.0096
vn -1.0000 -0.0001 -0.0098
vn 0.0000 -1.0000 0.0000
vn 0.0000 0.9155 0.4022
vn 0.4329 -0.8093 -0.3972
vn 0.3929 -0.8514 -0.3474
vn 0.4982 -0.8671 0.0000
vn 0.0000 1.0000 0.0000
vn -0.4452 -0.8954 0.0000
vn -0.0306 0.1431 0.9892
vn 0.0305 0.1422 0.9894
vn -0.0657 0.2649 0.9620
vn 0.0644 0.2617 0.9630
vn -0.4304 -0.8106 -0.3970
vn -0.9989 -0.0040 -0.0460
vn 0.9989 -0.0040 -0.0457
vn -0.3940 -0.8513 -0.3464
vn 0.4441 -0.8960 0.0000
vn -0.4955 -0.8686 0.0000
vn -0.0457 0.0000 0.9990
vn 0.0000 0.0655 0.9978
vn 0.0453 0.0000 0.9990
usemtl Building8
s off
f 42/1/1 38/2/1 52/3/1 54/4/1
f 41/5/2 19/6/2 8/7/2 38/8/2
f 38/8/3 8/7/3 50/9/3 52/10/3
f 33/11/4 11/12/4 2/13/4 32/14/4
f 18/15/2 13/16/2 20/17/2 22/18/2
f 37/19/4 6/20/4 21/21/4 40/22/4
f 35/23/4 16/24/4 11/12/4 33/11/4
f 3/25/2 15/26/2 10/27/2 12/28/2
f 39/29/2 4/30/2 9/31/2 34/32/2
f 23/33/5 27/34/5 15/35/5 3/36/5
f 22/18/2 20/17/2 14/37/2 7/38/2
f 25/39/6 28/40/6 78/41/6 5/42/6
f 12/28/2 10/27/2 13/16/2 18/15/2
f 34/32/2 9/31/2 17/43/2 36/44/2
f 40/22/4 21/21/4 16/24/4 35/23/4
f 36/44/2 17/43/2 19/6/2 41/5/2
f 29/45/7 26/46/7 8/47/7 19/48/7
f 24/49/8 30/50/8 9/51/8 4/52/8
f 31/53/9 29/45/9 19/48/9 17/54/9
f 30/50/10 31/53/10 17/54/10 9/51/10
f 11/55/10 16/56/10 31/53/10 30/50/10
f 16/56/9 21/57/9 29/45/9 31/53/9
f 2/58/8 11/55/8 30/50/8 24/49/8
f 21/57/7 6/59/7 26/46/7 29/45/7
f 7/60/6 14/61/6 28/40/6 25/39/6
f 1/62/5 75/63/5 27/34/5 23/33/5
f 32/14/11 2/13/11 45/64/11 44/65/11
f 39/66/12 43/67/12 55/68/12 53/69/12
f 67/70/5 32/71/5 43/72/5 66/73/5
f 61/74/6 38/75/6 42/76/6 65/77/6
f 59/78/2 36/44/2 41/5/2 64/79/2
f 63/80/13 40/22/13 35/23/13 58/81/13
f 57/82/2 34/32/2 36/44/2 59/78/2
f 62/83/2 39/29/2 34/32/2 57/82/2
f 58/81/14 35/23/14 33/11/14 56/84/14
f 60/85/15 37/19/15 40/22/15 63/80/15
f 56/84/16 33/11/16 32/14/16 67/86/16
f 65/77/6 42/76/6 37/87/6 60/88/6
f 64/79/2 41/5/2 38/8/2 61/89/2
f 66/73/5 43/72/5 39/90/5 62/91/5
f 55/92/17 46/93/17 47/94/17 53/95/17
f 54/96/18 48/97/18 49/98/18 51/99/18
f 52/100/18 50/101/18 48/97/18 54/96/18
f 44/102/17 45/103/17 46/93/17 55/92/17
f 26/46/19 6/59/19 49/104/19 48/105/19
f 8/47/19 26/46/19 48/105/19 50/106/19
f 4/30/20 39/29/20 53/107/20 47/108/20
f 24/49/21 4/52/21 47/109/21 46/110/21
f 2/58/21 24/49/21 46/110/21 45/111/21
f 37/112/1 42/1/1 54/4/1 51/113/1
f 6/20/22 37/19/22 51/114/22 49/115/22
f 43/67/12 32/116/12 44/117/12 55/68/12
f 74/118/5 66/73/5 62/91/5 71/119/5
f 72/120/2 64/79/2 61/89/2 70/121/2
f 73/122/6 65/77/6 60/88/6 77/123/6
f 71/124/2 62/83/2 57/82/2 68/125/2
f 68/125/2 57/82/2 59/78/2 69/126/2
f 69/126/2 59/78/2 64/79/2 72/120/2
f 70/127/6 61/74/6 65/77/6 73/122/6
f 76/128/5 67/70/5 66/73/5 74/118/5
f 75/63/5 76/128/5 74/118/5 27/34/5
f 14/61/6 70/127/6 73/122/6 28/40/6
f 13/16/2 69/126/2 72/120/2 20/17/2
f 10/27/2 68/125/2 69/126/2 13/16/2
f 15/26/2 71/124/2 68/125/2 10/27/2
f 28/40/6 73/122/6 77/123/6 78/41/6
f 20/17/2 72/120/2 70/121/2 14/37/2
f 27/34/5 74/118/5 71/119/5 15/35/5
f 75/129/23 1/130/23 87/131/23 86/132/23
f 77/133/24 60/85/24 63/80/24 83/134/24
f 76/135/23 75/129/23 86/132/23 82/136/23
f 63/80/25 58/81/25 81/137/25 79/138/25
f 5/139/26 78/140/26 84/141/26 85/142/26
f 78/140/26 77/133/26 83/134/26 84/141/26
f 67/86/27 76/135/27 82/136/27 56/84/27
f 58/81/25 56/84/25 80/143/25 81/137/25
f 86/144/28 87/145/28 95/146/28 97/147/28
f 80/148/29 56/149/29 104/150/29 105/151/29
f 83/152/30 63/153/30 106/154/30 100/155/30
f 82/156/28 86/144/28 97/147/28 103/157/28
f 79/158/29 81/159/29 108/160/29 107/161/29
f 85/162/31 84/163/31 88/164/31 89/165/31
f 84/163/31 83/152/31 100/155/31 88/164/31
f 56/166/32 82/156/32 103/157/32 104/167/32
f 81/159/29 80/148/29 105/151/29 108/160/29
f 63/168/29 79/158/29 107/161/29 106/169/29
f 89/170/4 88/171/4 98/172/4 90/173/4
f 143/174/33 141/175/33 149/176/33 146/177/33
f 94/178/4 93/179/4 97/180/4 95/181/4
f 107/161/34 108/160/34 119/182/34 118/183/34
f 106/169/34 107/161/34 118/183/34 117/184/34
f 159/185/35 152/186/35 156/187/35 161/188/35
f 154/189/36 159/185/36 161/188/36 160/190/36
f 124/191/37 126/192/37 131/193/37 136/194/37
f 130/195/5 92/196/5 91/197/5 140/198/5
f 122/199/38 121/200/38 134/201/38 132/202/38
f 92/196/39 101/203/39 102/204/39 91/197/39
f 120/205/40 116/206/40 115/207/40 114/208/40
f 109/209/41 117/184/41 118/183/41 112/210/41
f 110/211/42 119/182/42 116/206/42 120/205/42
f 112/210/43 118/183/43 119/182/43 110/211/43
f 152/186/44 157/212/44 158/213/44 156/187/44
f 108/160/34 105/151/34 116/206/34 119/182/34
f 104/167/45 103/157/45 114/214/45 115/215/45
f 100/155/46 106/154/46 117/216/46 109/217/46
f 157/212/47 153/218/47 155/219/47 158/213/47
f 105/151/34 104/150/34 115/207/34 116/206/34
f 121/220/4 122/221/4 93/179/4 96/222/4
f 122/221/4 123/223/4 97/180/4 93/179/4
f 124/224/4 121/220/4 96/222/4 99/225/4
f 123/223/4 125/226/4 103/227/4 97/180/4
f 126/228/4 124/224/4 99/225/4 113/229/4
f 125/226/4 126/228/4 113/229/4 103/227/4
f 127/230/4 128/231/4 96/222/4 98/172/4
f 128/231/4 129/232/4 99/225/4 96/222/4
f 92/233/4 130/234/4 88/171/4 100/235/4
f 130/234/4 127/230/4 98/172/4 88/171/4
f 129/232/4 101/236/4 111/237/4 99/225/4
f 101/236/4 92/233/4 100/235/4 111/237/4
f 133/238/4 102/239/4 139/240/4 138/241/4
f 134/242/4 136/243/4 131/244/4 132/245/4
f 140/246/4 91/247/4 102/239/4 133/238/4
f 132/245/4 131/244/4 137/248/4 135/249/4
f 123/250/38 122/199/38 132/202/38 135/251/38
f 127/252/38 130/195/38 140/198/38 133/253/38
f 126/192/48 125/254/48 137/255/48 131/193/48
f 128/256/38 127/252/38 133/253/38 138/257/38
f 121/200/5 124/191/5 136/194/5 134/201/5
f 101/203/49 129/258/49 139/259/49 102/204/49
f 129/258/6 128/256/6 138/257/6 139/259/6
f 125/254/6 123/250/6 135/251/6 137/255/6
f 142/260/50 141/261/50 93/179/50 94/178/50
f 141/261/51 143/262/51 96/222/51 93/179/51
f 143/262/51 144/263/51 98/172/51 96/222/51
f 144/263/52 145/264/52 90/173/52 98/172/52
f 147/265/4 146/266/4 149/267/4 150/268/4
f 148/269/4 151/270/4 146/266/4 147/265/4
f 145/271/5 144/272/5 151/273/5 148/274/5
f 144/272/33 143/174/33 146/177/33 151/273/33
f 141/175/6 142/275/6 150/276/6 149/176/6
